<?xml version="1.0" encoding="utf-8" standalone="no"?>
<!DOCTYPE svg PUBLIC "-//W3C//DTD SVG 1.1//EN"
  "http://www.w3.org/Graphics/SVG/1.1/DTD/svg11.dtd">
<svg xmlns:xlink="http://www.w3.org/1999/xlink" width="720pt" height="360pt" viewBox="0 0 720 360" xmlns="http://www.w3.org/2000/svg" version="1.1">
 <metadata>
  <rdf:RDF xmlns:dc="http://purl.org/dc/elements/1.1/" xmlns:cc="http://creativecommons.org/ns#" xmlns:rdf="http://www.w3.org/1999/02/22-rdf-syntax-ns#">
   <cc:Work>
    <dc:type rdf:resource="http://purl.org/dc/dcmitype/StillImage"/>
    <dc:date>2024-03-10T10:15:33.622391</dc:date>
    <dc:format>image/svg+xml</dc:format>
    <dc:creator>
     <cc:Agent>
      <dc:title>Matplotlib v3.8.3, https://matplotlib.org/</dc:title>
     </cc:Agent>
    </dc:creator>
   </cc:Work>
  </rdf:RDF>
 </metadata>
 <defs>
  <style type="text/css">*{stroke-linejoin: round; stroke-linecap: butt}</style>
 </defs>
 <g id="figure_1">
  <g id="patch_1">
   <path d="M 0 360 
L 720 360 
L 720 0 
L 0 0 
z
" style="fill: #ffffff"/>
  </g>
  <g id="axes_1">
   <g id="patch_2">
    <path d="M 63.85 230.6 
L 521.95 230.6 
L 521.95 10.8 
L 63.85 10.8 
z
" style="fill: #ffffff"/>
   </g>
   <g id="matplotlib.axis_1">
    <g id="xtick_1">
     <g id="line2d_1">
      <defs>
       <path id="m8bbd7a9690" d="M 0 0 
L 0 3.5 
" style="stroke: #000000; stroke-width: 0.8"/>
      </defs>
      <g>
       <use xlink:href="#m8bbd7a9690" x="84.672727" y="230.6" style="stroke: #000000; stroke-width: 0.8"/>
      </g>
     </g>
     <g id="text_1">
      <!-- Alaska.geojson -->
      <g transform="translate(81.833196 312.542188) rotate(-90) scale(0.1 -0.1)">
       <defs>
        <path id="DejaVuSans-41" d="M 2188 4044 
L 1331 1722 
L 3047 1722 
L 2188 4044 
z
M 1831 4666 
L 2547 4666 
L 4325 0 
L 3669 0 
L 3244 1197 
L 1141 1197 
L 716 0 
L 50 0 
L 1831 4666 
z
" transform="scale(0.015625)"/>
        <path id="DejaVuSans-6c" d="M 603 4863 
L 1178 4863 
L 1178 0 
L 603 0 
L 603 4863 
z
" transform="scale(0.015625)"/>
        <path id="DejaVuSans-61" d="M 2194 1759 
Q 1497 1759 1228 1600 
Q 959 1441 959 1056 
Q 959 750 1161 570 
Q 1363 391 1709 391 
Q 2188 391 2477 730 
Q 2766 1069 2766 1631 
L 2766 1759 
L 2194 1759 
z
M 3341 1997 
L 3341 0 
L 2766 0 
L 2766 531 
Q 2569 213 2275 61 
Q 1981 -91 1556 -91 
Q 1019 -91 701 211 
Q 384 513 384 1019 
Q 384 1609 779 1909 
Q 1175 2209 1959 2209 
L 2766 2209 
L 2766 2266 
Q 2766 2663 2505 2880 
Q 2244 3097 1772 3097 
Q 1472 3097 1187 3025 
Q 903 2953 641 2809 
L 641 3341 
Q 956 3463 1253 3523 
Q 1550 3584 1831 3584 
Q 2591 3584 2966 3190 
Q 3341 2797 3341 1997 
z
" transform="scale(0.015625)"/>
        <path id="DejaVuSans-73" d="M 2834 3397 
L 2834 2853 
Q 2591 2978 2328 3040 
Q 2066 3103 1784 3103 
Q 1356 3103 1142 2972 
Q 928 2841 928 2578 
Q 928 2378 1081 2264 
Q 1234 2150 1697 2047 
L 1894 2003 
Q 2506 1872 2764 1633 
Q 3022 1394 3022 966 
Q 3022 478 2636 193 
Q 2250 -91 1575 -91 
Q 1294 -91 989 -36 
Q 684 19 347 128 
L 347 722 
Q 666 556 975 473 
Q 1284 391 1588 391 
Q 1994 391 2212 530 
Q 2431 669 2431 922 
Q 2431 1156 2273 1281 
Q 2116 1406 1581 1522 
L 1381 1569 
Q 847 1681 609 1914 
Q 372 2147 372 2553 
Q 372 3047 722 3315 
Q 1072 3584 1716 3584 
Q 2034 3584 2315 3537 
Q 2597 3491 2834 3397 
z
" transform="scale(0.015625)"/>
        <path id="DejaVuSans-6b" d="M 581 4863 
L 1159 4863 
L 1159 1991 
L 2875 3500 
L 3609 3500 
L 1753 1863 
L 3688 0 
L 2938 0 
L 1159 1709 
L 1159 0 
L 581 0 
L 581 4863 
z
" transform="scale(0.015625)"/>
        <path id="DejaVuSans-2e" d="M 684 794 
L 1344 794 
L 1344 0 
L 684 0 
L 684 794 
z
" transform="scale(0.015625)"/>
        <path id="DejaVuSans-67" d="M 2906 1791 
Q 2906 2416 2648 2759 
Q 2391 3103 1925 3103 
Q 1463 3103 1205 2759 
Q 947 2416 947 1791 
Q 947 1169 1205 825 
Q 1463 481 1925 481 
Q 2391 481 2648 825 
Q 2906 1169 2906 1791 
z
M 3481 434 
Q 3481 -459 3084 -895 
Q 2688 -1331 1869 -1331 
Q 1566 -1331 1297 -1286 
Q 1028 -1241 775 -1147 
L 775 -588 
Q 1028 -725 1275 -790 
Q 1522 -856 1778 -856 
Q 2344 -856 2625 -561 
Q 2906 -266 2906 331 
L 2906 616 
Q 2728 306 2450 153 
Q 2172 0 1784 0 
Q 1141 0 747 490 
Q 353 981 353 1791 
Q 353 2603 747 3093 
Q 1141 3584 1784 3584 
Q 2172 3584 2450 3431 
Q 2728 3278 2906 2969 
L 2906 3500 
L 3481 3500 
L 3481 434 
z
" transform="scale(0.015625)"/>
        <path id="DejaVuSans-65" d="M 3597 1894 
L 3597 1613 
L 953 1613 
Q 991 1019 1311 708 
Q 1631 397 2203 397 
Q 2534 397 2845 478 
Q 3156 559 3463 722 
L 3463 178 
Q 3153 47 2828 -22 
Q 2503 -91 2169 -91 
Q 1331 -91 842 396 
Q 353 884 353 1716 
Q 353 2575 817 3079 
Q 1281 3584 2069 3584 
Q 2775 3584 3186 3129 
Q 3597 2675 3597 1894 
z
M 3022 2063 
Q 3016 2534 2758 2815 
Q 2500 3097 2075 3097 
Q 1594 3097 1305 2825 
Q 1016 2553 972 2059 
L 3022 2063 
z
" transform="scale(0.015625)"/>
        <path id="DejaVuSans-6f" d="M 1959 3097 
Q 1497 3097 1228 2736 
Q 959 2375 959 1747 
Q 959 1119 1226 758 
Q 1494 397 1959 397 
Q 2419 397 2687 759 
Q 2956 1122 2956 1747 
Q 2956 2369 2687 2733 
Q 2419 3097 1959 3097 
z
M 1959 3584 
Q 2709 3584 3137 3096 
Q 3566 2609 3566 1747 
Q 3566 888 3137 398 
Q 2709 -91 1959 -91 
Q 1206 -91 779 398 
Q 353 888 353 1747 
Q 353 2609 779 3096 
Q 1206 3584 1959 3584 
z
" transform="scale(0.015625)"/>
        <path id="DejaVuSans-6a" d="M 603 3500 
L 1178 3500 
L 1178 -63 
Q 1178 -731 923 -1031 
Q 669 -1331 103 -1331 
L -116 -1331 
L -116 -844 
L 38 -844 
Q 366 -844 484 -692 
Q 603 -541 603 -63 
L 603 3500 
z
M 603 4863 
L 1178 4863 
L 1178 4134 
L 603 4134 
L 603 4863 
z
" transform="scale(0.015625)"/>
        <path id="DejaVuSans-6e" d="M 3513 2113 
L 3513 0 
L 2938 0 
L 2938 2094 
Q 2938 2591 2744 2837 
Q 2550 3084 2163 3084 
Q 1697 3084 1428 2787 
Q 1159 2491 1159 1978 
L 1159 0 
L 581 0 
L 581 3500 
L 1159 3500 
L 1159 2956 
Q 1366 3272 1645 3428 
Q 1925 3584 2291 3584 
Q 2894 3584 3203 3211 
Q 3513 2838 3513 2113 
z
" transform="scale(0.015625)"/>
       </defs>
       <use xlink:href="#DejaVuSans-41"/>
       <use xlink:href="#DejaVuSans-6c" x="68.408203"/>
       <use xlink:href="#DejaVuSans-61" x="96.191406"/>
       <use xlink:href="#DejaVuSans-73" x="157.470703"/>
       <use xlink:href="#DejaVuSans-6b" x="209.570312"/>
       <use xlink:href="#DejaVuSans-61" x="265.730469"/>
       <use xlink:href="#DejaVuSans-2e" x="327.009766"/>
       <use xlink:href="#DejaVuSans-67" x="358.796875"/>
       <use xlink:href="#DejaVuSans-65" x="422.273438"/>
       <use xlink:href="#DejaVuSans-6f" x="483.796875"/>
       <use xlink:href="#DejaVuSans-6a" x="544.978516"/>
       <use xlink:href="#DejaVuSans-73" x="572.761719"/>
       <use xlink:href="#DejaVuSans-6f" x="624.861328"/>
       <use xlink:href="#DejaVuSans-6e" x="686.042969"/>
      </g>
      <!-- (31.46 MB) -->
      <g transform="translate(93.031009 302.620313) rotate(-90) scale(0.1 -0.1)">
       <defs>
        <path id="DejaVuSans-28" d="M 1984 4856 
Q 1566 4138 1362 3434 
Q 1159 2731 1159 2009 
Q 1159 1288 1364 580 
Q 1569 -128 1984 -844 
L 1484 -844 
Q 1016 -109 783 600 
Q 550 1309 550 2009 
Q 550 2706 781 3412 
Q 1013 4119 1484 4856 
L 1984 4856 
z
" transform="scale(0.015625)"/>
        <path id="DejaVuSans-33" d="M 2597 2516 
Q 3050 2419 3304 2112 
Q 3559 1806 3559 1356 
Q 3559 666 3084 287 
Q 2609 -91 1734 -91 
Q 1441 -91 1130 -33 
Q 819 25 488 141 
L 488 750 
Q 750 597 1062 519 
Q 1375 441 1716 441 
Q 2309 441 2620 675 
Q 2931 909 2931 1356 
Q 2931 1769 2642 2001 
Q 2353 2234 1838 2234 
L 1294 2234 
L 1294 2753 
L 1863 2753 
Q 2328 2753 2575 2939 
Q 2822 3125 2822 3475 
Q 2822 3834 2567 4026 
Q 2313 4219 1838 4219 
Q 1578 4219 1281 4162 
Q 984 4106 628 3988 
L 628 4550 
Q 988 4650 1302 4700 
Q 1616 4750 1894 4750 
Q 2613 4750 3031 4423 
Q 3450 4097 3450 3541 
Q 3450 3153 3228 2886 
Q 3006 2619 2597 2516 
z
" transform="scale(0.015625)"/>
        <path id="DejaVuSans-31" d="M 794 531 
L 1825 531 
L 1825 4091 
L 703 3866 
L 703 4441 
L 1819 4666 
L 2450 4666 
L 2450 531 
L 3481 531 
L 3481 0 
L 794 0 
L 794 531 
z
" transform="scale(0.015625)"/>
        <path id="DejaVuSans-34" d="M 2419 4116 
L 825 1625 
L 2419 1625 
L 2419 4116 
z
M 2253 4666 
L 3047 4666 
L 3047 1625 
L 3713 1625 
L 3713 1100 
L 3047 1100 
L 3047 0 
L 2419 0 
L 2419 1100 
L 313 1100 
L 313 1709 
L 2253 4666 
z
" transform="scale(0.015625)"/>
        <path id="DejaVuSans-36" d="M 2113 2584 
Q 1688 2584 1439 2293 
Q 1191 2003 1191 1497 
Q 1191 994 1439 701 
Q 1688 409 2113 409 
Q 2538 409 2786 701 
Q 3034 994 3034 1497 
Q 3034 2003 2786 2293 
Q 2538 2584 2113 2584 
z
M 3366 4563 
L 3366 3988 
Q 3128 4100 2886 4159 
Q 2644 4219 2406 4219 
Q 1781 4219 1451 3797 
Q 1122 3375 1075 2522 
Q 1259 2794 1537 2939 
Q 1816 3084 2150 3084 
Q 2853 3084 3261 2657 
Q 3669 2231 3669 1497 
Q 3669 778 3244 343 
Q 2819 -91 2113 -91 
Q 1303 -91 875 529 
Q 447 1150 447 2328 
Q 447 3434 972 4092 
Q 1497 4750 2381 4750 
Q 2619 4750 2861 4703 
Q 3103 4656 3366 4563 
z
" transform="scale(0.015625)"/>
        <path id="DejaVuSans-20" transform="scale(0.015625)"/>
        <path id="DejaVuSans-4d" d="M 628 4666 
L 1569 4666 
L 2759 1491 
L 3956 4666 
L 4897 4666 
L 4897 0 
L 4281 0 
L 4281 4097 
L 3078 897 
L 2444 897 
L 1241 4097 
L 1241 0 
L 628 0 
L 628 4666 
z
" transform="scale(0.015625)"/>
        <path id="DejaVuSans-42" d="M 1259 2228 
L 1259 519 
L 2272 519 
Q 2781 519 3026 730 
Q 3272 941 3272 1375 
Q 3272 1813 3026 2020 
Q 2781 2228 2272 2228 
L 1259 2228 
z
M 1259 4147 
L 1259 2741 
L 2194 2741 
Q 2656 2741 2882 2914 
Q 3109 3088 3109 3444 
Q 3109 3797 2882 3972 
Q 2656 4147 2194 4147 
L 1259 4147 
z
M 628 4666 
L 2241 4666 
Q 2963 4666 3353 4366 
Q 3744 4066 3744 3513 
Q 3744 3084 3544 2831 
Q 3344 2578 2956 2516 
Q 3422 2416 3680 2098 
Q 3938 1781 3938 1306 
Q 3938 681 3513 340 
Q 3088 0 2303 0 
L 628 0 
L 628 4666 
z
" transform="scale(0.015625)"/>
        <path id="DejaVuSans-29" d="M 513 4856 
L 1013 4856 
Q 1481 4119 1714 3412 
Q 1947 2706 1947 2009 
Q 1947 1309 1714 600 
Q 1481 -109 1013 -844 
L 513 -844 
Q 928 -128 1133 580 
Q 1338 1288 1338 2009 
Q 1338 2731 1133 3434 
Q 928 4138 513 4856 
z
" transform="scale(0.015625)"/>
       </defs>
       <use xlink:href="#DejaVuSans-28"/>
       <use xlink:href="#DejaVuSans-33" x="39.013672"/>
       <use xlink:href="#DejaVuSans-31" x="102.636719"/>
       <use xlink:href="#DejaVuSans-2e" x="166.259766"/>
       <use xlink:href="#DejaVuSans-34" x="198.046875"/>
       <use xlink:href="#DejaVuSans-36" x="261.669922"/>
       <use xlink:href="#DejaVuSans-20" x="325.292969"/>
       <use xlink:href="#DejaVuSans-4d" x="357.080078"/>
       <use xlink:href="#DejaVuSans-42" x="443.359375"/>
       <use xlink:href="#DejaVuSans-29" x="511.962891"/>
      </g>
     </g>
    </g>
    <g id="xtick_2">
     <g id="line2d_2">
      <g>
       <use xlink:href="#m8bbd7a9690" x="136.729545" y="230.6" style="stroke: #000000; stroke-width: 0.8"/>
      </g>
     </g>
     <g id="text_2">
      <!-- Vermont.geojson -->
      <g transform="translate(133.890014 322.114062) rotate(-90) scale(0.1 -0.1)">
       <defs>
        <path id="DejaVuSans-56" d="M 1831 0 
L 50 4666 
L 709 4666 
L 2188 738 
L 3669 4666 
L 4325 4666 
L 2547 0 
L 1831 0 
z
" transform="scale(0.015625)"/>
        <path id="DejaVuSans-72" d="M 2631 2963 
Q 2534 3019 2420 3045 
Q 2306 3072 2169 3072 
Q 1681 3072 1420 2755 
Q 1159 2438 1159 1844 
L 1159 0 
L 581 0 
L 581 3500 
L 1159 3500 
L 1159 2956 
Q 1341 3275 1631 3429 
Q 1922 3584 2338 3584 
Q 2397 3584 2469 3576 
Q 2541 3569 2628 3553 
L 2631 2963 
z
" transform="scale(0.015625)"/>
        <path id="DejaVuSans-6d" d="M 3328 2828 
Q 3544 3216 3844 3400 
Q 4144 3584 4550 3584 
Q 5097 3584 5394 3201 
Q 5691 2819 5691 2113 
L 5691 0 
L 5113 0 
L 5113 2094 
Q 5113 2597 4934 2840 
Q 4756 3084 4391 3084 
Q 3944 3084 3684 2787 
Q 3425 2491 3425 1978 
L 3425 0 
L 2847 0 
L 2847 2094 
Q 2847 2600 2669 2842 
Q 2491 3084 2119 3084 
Q 1678 3084 1418 2786 
Q 1159 2488 1159 1978 
L 1159 0 
L 581 0 
L 581 3500 
L 1159 3500 
L 1159 2956 
Q 1356 3278 1631 3431 
Q 1906 3584 2284 3584 
Q 2666 3584 2933 3390 
Q 3200 3197 3328 2828 
z
" transform="scale(0.015625)"/>
        <path id="DejaVuSans-74" d="M 1172 4494 
L 1172 3500 
L 2356 3500 
L 2356 3053 
L 1172 3053 
L 1172 1153 
Q 1172 725 1289 603 
Q 1406 481 1766 481 
L 2356 481 
L 2356 0 
L 1766 0 
Q 1100 0 847 248 
Q 594 497 594 1153 
L 594 3053 
L 172 3053 
L 172 3500 
L 594 3500 
L 594 4494 
L 1172 4494 
z
" transform="scale(0.015625)"/>
       </defs>
       <use xlink:href="#DejaVuSans-56"/>
       <use xlink:href="#DejaVuSans-65" x="60.658203"/>
       <use xlink:href="#DejaVuSans-72" x="122.181641"/>
       <use xlink:href="#DejaVuSans-6d" x="161.544922"/>
       <use xlink:href="#DejaVuSans-6f" x="258.957031"/>
       <use xlink:href="#DejaVuSans-6e" x="320.138672"/>
       <use xlink:href="#DejaVuSans-74" x="383.517578"/>
       <use xlink:href="#DejaVuSans-2e" x="422.726562"/>
       <use xlink:href="#DejaVuSans-67" x="454.513672"/>
       <use xlink:href="#DejaVuSans-65" x="517.990234"/>
       <use xlink:href="#DejaVuSans-6f" x="579.513672"/>
       <use xlink:href="#DejaVuSans-6a" x="640.695312"/>
       <use xlink:href="#DejaVuSans-73" x="668.478516"/>
       <use xlink:href="#DejaVuSans-6f" x="720.578125"/>
       <use xlink:href="#DejaVuSans-6e" x="781.759766"/>
      </g>
      <!-- (92.19 MB) -->
      <g transform="translate(145.087827 307.40625) rotate(-90) scale(0.1 -0.1)">
       <defs>
        <path id="DejaVuSans-39" d="M 703 97 
L 703 672 
Q 941 559 1184 500 
Q 1428 441 1663 441 
Q 2288 441 2617 861 
Q 2947 1281 2994 2138 
Q 2813 1869 2534 1725 
Q 2256 1581 1919 1581 
Q 1219 1581 811 2004 
Q 403 2428 403 3163 
Q 403 3881 828 4315 
Q 1253 4750 1959 4750 
Q 2769 4750 3195 4129 
Q 3622 3509 3622 2328 
Q 3622 1225 3098 567 
Q 2575 -91 1691 -91 
Q 1453 -91 1209 -44 
Q 966 3 703 97 
z
M 1959 2075 
Q 2384 2075 2632 2365 
Q 2881 2656 2881 3163 
Q 2881 3666 2632 3958 
Q 2384 4250 1959 4250 
Q 1534 4250 1286 3958 
Q 1038 3666 1038 3163 
Q 1038 2656 1286 2365 
Q 1534 2075 1959 2075 
z
" transform="scale(0.015625)"/>
        <path id="DejaVuSans-32" d="M 1228 531 
L 3431 531 
L 3431 0 
L 469 0 
L 469 531 
Q 828 903 1448 1529 
Q 2069 2156 2228 2338 
Q 2531 2678 2651 2914 
Q 2772 3150 2772 3378 
Q 2772 3750 2511 3984 
Q 2250 4219 1831 4219 
Q 1534 4219 1204 4116 
Q 875 4013 500 3803 
L 500 4441 
Q 881 4594 1212 4672 
Q 1544 4750 1819 4750 
Q 2544 4750 2975 4387 
Q 3406 4025 3406 3419 
Q 3406 3131 3298 2873 
Q 3191 2616 2906 2266 
Q 2828 2175 2409 1742 
Q 1991 1309 1228 531 
z
" transform="scale(0.015625)"/>
       </defs>
       <use xlink:href="#DejaVuSans-28"/>
       <use xlink:href="#DejaVuSans-39" x="39.013672"/>
       <use xlink:href="#DejaVuSans-32" x="102.636719"/>
       <use xlink:href="#DejaVuSans-2e" x="166.259766"/>
       <use xlink:href="#DejaVuSans-31" x="198.046875"/>
       <use xlink:href="#DejaVuSans-39" x="261.669922"/>
       <use xlink:href="#DejaVuSans-20" x="325.292969"/>
       <use xlink:href="#DejaVuSans-4d" x="357.080078"/>
       <use xlink:href="#DejaVuSans-42" x="443.359375"/>
       <use xlink:href="#DejaVuSans-29" x="511.962891"/>
      </g>
     </g>
    </g>
    <g id="xtick_3">
     <g id="line2d_3">
      <g>
       <use xlink:href="#m8bbd7a9690" x="188.786364" y="230.6" style="stroke: #000000; stroke-width: 0.8"/>
      </g>
     </g>
     <g id="text_3">
      <!-- Idaho.geojson -->
      <g transform="translate(185.946832 307.55) rotate(-90) scale(0.1 -0.1)">
       <defs>
        <path id="DejaVuSans-49" d="M 628 4666 
L 1259 4666 
L 1259 0 
L 628 0 
L 628 4666 
z
" transform="scale(0.015625)"/>
        <path id="DejaVuSans-64" d="M 2906 2969 
L 2906 4863 
L 3481 4863 
L 3481 0 
L 2906 0 
L 2906 525 
Q 2725 213 2448 61 
Q 2172 -91 1784 -91 
Q 1150 -91 751 415 
Q 353 922 353 1747 
Q 353 2572 751 3078 
Q 1150 3584 1784 3584 
Q 2172 3584 2448 3432 
Q 2725 3281 2906 2969 
z
M 947 1747 
Q 947 1113 1208 752 
Q 1469 391 1925 391 
Q 2381 391 2643 752 
Q 2906 1113 2906 1747 
Q 2906 2381 2643 2742 
Q 2381 3103 1925 3103 
Q 1469 3103 1208 2742 
Q 947 2381 947 1747 
z
" transform="scale(0.015625)"/>
        <path id="DejaVuSans-68" d="M 3513 2113 
L 3513 0 
L 2938 0 
L 2938 2094 
Q 2938 2591 2744 2837 
Q 2550 3084 2163 3084 
Q 1697 3084 1428 2787 
Q 1159 2491 1159 1978 
L 1159 0 
L 581 0 
L 581 4863 
L 1159 4863 
L 1159 2956 
Q 1366 3272 1645 3428 
Q 1925 3584 2291 3584 
Q 2894 3584 3203 3211 
Q 3513 2838 3513 2113 
z
" transform="scale(0.015625)"/>
       </defs>
       <use xlink:href="#DejaVuSans-49"/>
       <use xlink:href="#DejaVuSans-64" x="29.492188"/>
       <use xlink:href="#DejaVuSans-61" x="92.96875"/>
       <use xlink:href="#DejaVuSans-68" x="154.248047"/>
       <use xlink:href="#DejaVuSans-6f" x="217.626953"/>
       <use xlink:href="#DejaVuSans-2e" x="277.058594"/>
       <use xlink:href="#DejaVuSans-67" x="308.845703"/>
       <use xlink:href="#DejaVuSans-65" x="372.322266"/>
       <use xlink:href="#DejaVuSans-6f" x="433.845703"/>
       <use xlink:href="#DejaVuSans-6a" x="495.027344"/>
       <use xlink:href="#DejaVuSans-73" x="522.810547"/>
       <use xlink:href="#DejaVuSans-6f" x="574.910156"/>
       <use xlink:href="#DejaVuSans-6e" x="636.091797"/>
      </g>
      <!-- (272.03 MB) -->
      <g transform="translate(197.144645 303.305469) rotate(-90) scale(0.1 -0.1)">
       <defs>
        <path id="DejaVuSans-37" d="M 525 4666 
L 3525 4666 
L 3525 4397 
L 1831 0 
L 1172 0 
L 2766 4134 
L 525 4134 
L 525 4666 
z
" transform="scale(0.015625)"/>
        <path id="DejaVuSans-30" d="M 2034 4250 
Q 1547 4250 1301 3770 
Q 1056 3291 1056 2328 
Q 1056 1369 1301 889 
Q 1547 409 2034 409 
Q 2525 409 2770 889 
Q 3016 1369 3016 2328 
Q 3016 3291 2770 3770 
Q 2525 4250 2034 4250 
z
M 2034 4750 
Q 2819 4750 3233 4129 
Q 3647 3509 3647 2328 
Q 3647 1150 3233 529 
Q 2819 -91 2034 -91 
Q 1250 -91 836 529 
Q 422 1150 422 2328 
Q 422 3509 836 4129 
Q 1250 4750 2034 4750 
z
" transform="scale(0.015625)"/>
       </defs>
       <use xlink:href="#DejaVuSans-28"/>
       <use xlink:href="#DejaVuSans-32" x="39.013672"/>
       <use xlink:href="#DejaVuSans-37" x="102.636719"/>
       <use xlink:href="#DejaVuSans-32" x="166.259766"/>
       <use xlink:href="#DejaVuSans-2e" x="229.882812"/>
       <use xlink:href="#DejaVuSans-30" x="261.669922"/>
       <use xlink:href="#DejaVuSans-33" x="325.292969"/>
       <use xlink:href="#DejaVuSans-20" x="388.916016"/>
       <use xlink:href="#DejaVuSans-4d" x="420.703125"/>
       <use xlink:href="#DejaVuSans-42" x="506.982422"/>
       <use xlink:href="#DejaVuSans-29" x="575.585938"/>
      </g>
     </g>
    </g>
    <g id="xtick_4">
     <g id="line2d_4">
      <g>
       <use xlink:href="#m8bbd7a9690" x="240.843182" y="230.6" style="stroke: #000000; stroke-width: 0.8"/>
      </g>
     </g>
     <g id="text_4">
      <!-- Oregon.geojson -->
      <g transform="translate(238.003651 316.557813) rotate(-90) scale(0.1 -0.1)">
       <defs>
        <path id="DejaVuSans-4f" d="M 2522 4238 
Q 1834 4238 1429 3725 
Q 1025 3213 1025 2328 
Q 1025 1447 1429 934 
Q 1834 422 2522 422 
Q 3209 422 3611 934 
Q 4013 1447 4013 2328 
Q 4013 3213 3611 3725 
Q 3209 4238 2522 4238 
z
M 2522 4750 
Q 3503 4750 4090 4092 
Q 4678 3434 4678 2328 
Q 4678 1225 4090 567 
Q 3503 -91 2522 -91 
Q 1538 -91 948 565 
Q 359 1222 359 2328 
Q 359 3434 948 4092 
Q 1538 4750 2522 4750 
z
" transform="scale(0.015625)"/>
       </defs>
       <use xlink:href="#DejaVuSans-4f"/>
       <use xlink:href="#DejaVuSans-72" x="78.710938"/>
       <use xlink:href="#DejaVuSans-65" x="117.574219"/>
       <use xlink:href="#DejaVuSans-67" x="179.097656"/>
       <use xlink:href="#DejaVuSans-6f" x="242.574219"/>
       <use xlink:href="#DejaVuSans-6e" x="303.755859"/>
       <use xlink:href="#DejaVuSans-2e" x="367.134766"/>
       <use xlink:href="#DejaVuSans-67" x="398.921875"/>
       <use xlink:href="#DejaVuSans-65" x="462.398438"/>
       <use xlink:href="#DejaVuSans-6f" x="523.921875"/>
       <use xlink:href="#DejaVuSans-6a" x="585.103516"/>
       <use xlink:href="#DejaVuSans-73" x="612.886719"/>
       <use xlink:href="#DejaVuSans-6f" x="664.986328"/>
       <use xlink:href="#DejaVuSans-6e" x="726.167969"/>
      </g>
      <!-- (572.46 MB) -->
      <g transform="translate(249.201463 307.809375) rotate(-90) scale(0.1 -0.1)">
       <defs>
        <path id="DejaVuSans-35" d="M 691 4666 
L 3169 4666 
L 3169 4134 
L 1269 4134 
L 1269 2991 
Q 1406 3038 1543 3061 
Q 1681 3084 1819 3084 
Q 2600 3084 3056 2656 
Q 3513 2228 3513 1497 
Q 3513 744 3044 326 
Q 2575 -91 1722 -91 
Q 1428 -91 1123 -41 
Q 819 9 494 109 
L 494 744 
Q 775 591 1075 516 
Q 1375 441 1709 441 
Q 2250 441 2565 725 
Q 2881 1009 2881 1497 
Q 2881 1984 2565 2268 
Q 2250 2553 1709 2553 
Q 1456 2553 1204 2497 
Q 953 2441 691 2322 
L 691 4666 
z
" transform="scale(0.015625)"/>
       </defs>
       <use xlink:href="#DejaVuSans-28"/>
       <use xlink:href="#DejaVuSans-35" x="39.013672"/>
       <use xlink:href="#DejaVuSans-37" x="102.636719"/>
       <use xlink:href="#DejaVuSans-32" x="166.259766"/>
       <use xlink:href="#DejaVuSans-2e" x="229.882812"/>
       <use xlink:href="#DejaVuSans-34" x="261.669922"/>
       <use xlink:href="#DejaVuSans-36" x="325.292969"/>
       <use xlink:href="#DejaVuSans-20" x="388.916016"/>
       <use xlink:href="#DejaVuSans-4d" x="420.703125"/>
       <use xlink:href="#DejaVuSans-42" x="506.982422"/>
       <use xlink:href="#DejaVuSans-29" x="575.585938"/>
      </g>
     </g>
    </g>
    <g id="xtick_5">
     <g id="line2d_5">
      <g>
       <use xlink:href="#m8bbd7a9690" x="292.9" y="230.6" style="stroke: #000000; stroke-width: 0.8"/>
      </g>
     </g>
     <g id="text_5">
      <!-- Minnesota.geojson -->
      <g transform="translate(290.060469 331.453125) rotate(-90) scale(0.1 -0.1)">
       <defs>
        <path id="DejaVuSans-69" d="M 603 3500 
L 1178 3500 
L 1178 0 
L 603 0 
L 603 3500 
z
M 603 4863 
L 1178 4863 
L 1178 4134 
L 603 4134 
L 603 4863 
z
" transform="scale(0.015625)"/>
       </defs>
       <use xlink:href="#DejaVuSans-4d"/>
       <use xlink:href="#DejaVuSans-69" x="86.279297"/>
       <use xlink:href="#DejaVuSans-6e" x="114.0625"/>
       <use xlink:href="#DejaVuSans-6e" x="177.441406"/>
       <use xlink:href="#DejaVuSans-65" x="240.820312"/>
       <use xlink:href="#DejaVuSans-73" x="302.34375"/>
       <use xlink:href="#DejaVuSans-6f" x="354.443359"/>
       <use xlink:href="#DejaVuSans-74" x="415.625"/>
       <use xlink:href="#DejaVuSans-61" x="454.833984"/>
       <use xlink:href="#DejaVuSans-2e" x="516.113281"/>
       <use xlink:href="#DejaVuSans-67" x="547.900391"/>
       <use xlink:href="#DejaVuSans-65" x="611.376953"/>
       <use xlink:href="#DejaVuSans-6f" x="672.900391"/>
       <use xlink:href="#DejaVuSans-6a" x="734.082031"/>
       <use xlink:href="#DejaVuSans-73" x="761.865234"/>
       <use xlink:href="#DejaVuSans-6f" x="813.964844"/>
       <use xlink:href="#DejaVuSans-6e" x="875.146484"/>
      </g>
      <!-- (799.10 MB) -->
      <g transform="translate(301.258281 315.257031) rotate(-90) scale(0.1 -0.1)">
       <use xlink:href="#DejaVuSans-28"/>
       <use xlink:href="#DejaVuSans-37" x="39.013672"/>
       <use xlink:href="#DejaVuSans-39" x="102.636719"/>
       <use xlink:href="#DejaVuSans-39" x="166.259766"/>
       <use xlink:href="#DejaVuSans-2e" x="229.882812"/>
       <use xlink:href="#DejaVuSans-31" x="261.669922"/>
       <use xlink:href="#DejaVuSans-30" x="325.292969"/>
       <use xlink:href="#DejaVuSans-20" x="388.916016"/>
       <use xlink:href="#DejaVuSans-4d" x="420.703125"/>
       <use xlink:href="#DejaVuSans-42" x="506.982422"/>
       <use xlink:href="#DejaVuSans-29" x="575.585938"/>
      </g>
     </g>
    </g>
    <g id="xtick_6">
     <g id="line2d_6">
      <g>
       <use xlink:href="#m8bbd7a9690" x="344.956818" y="230.6" style="stroke: #000000; stroke-width: 0.8"/>
      </g>
     </g>
     <g id="text_6">
      <!-- Georgia.geojson -->
      <g transform="translate(342.117287 319.053125) rotate(-90) scale(0.1 -0.1)">
       <defs>
        <path id="DejaVuSans-47" d="M 3809 666 
L 3809 1919 
L 2778 1919 
L 2778 2438 
L 4434 2438 
L 4434 434 
Q 4069 175 3628 42 
Q 3188 -91 2688 -91 
Q 1594 -91 976 548 
Q 359 1188 359 2328 
Q 359 3472 976 4111 
Q 1594 4750 2688 4750 
Q 3144 4750 3555 4637 
Q 3966 4525 4313 4306 
L 4313 3634 
Q 3963 3931 3569 4081 
Q 3175 4231 2741 4231 
Q 1884 4231 1454 3753 
Q 1025 3275 1025 2328 
Q 1025 1384 1454 906 
Q 1884 428 2741 428 
Q 3075 428 3337 486 
Q 3600 544 3809 666 
z
" transform="scale(0.015625)"/>
       </defs>
       <use xlink:href="#DejaVuSans-47"/>
       <use xlink:href="#DejaVuSans-65" x="77.490234"/>
       <use xlink:href="#DejaVuSans-6f" x="139.013672"/>
       <use xlink:href="#DejaVuSans-72" x="200.195312"/>
       <use xlink:href="#DejaVuSans-67" x="239.558594"/>
       <use xlink:href="#DejaVuSans-69" x="303.035156"/>
       <use xlink:href="#DejaVuSans-61" x="330.818359"/>
       <use xlink:href="#DejaVuSans-2e" x="392.097656"/>
       <use xlink:href="#DejaVuSans-67" x="423.884766"/>
       <use xlink:href="#DejaVuSans-65" x="487.361328"/>
       <use xlink:href="#DejaVuSans-6f" x="548.884766"/>
       <use xlink:href="#DejaVuSans-6a" x="610.066406"/>
       <use xlink:href="#DejaVuSans-73" x="637.849609"/>
       <use xlink:href="#DejaVuSans-6f" x="689.949219"/>
       <use xlink:href="#DejaVuSans-6e" x="751.130859"/>
      </g>
      <!-- (1.12 GB) -->
      <g transform="translate(353.315099 302.254687) rotate(-90) scale(0.1 -0.1)">
       <use xlink:href="#DejaVuSans-28"/>
       <use xlink:href="#DejaVuSans-31" x="39.013672"/>
       <use xlink:href="#DejaVuSans-2e" x="102.636719"/>
       <use xlink:href="#DejaVuSans-31" x="134.423828"/>
       <use xlink:href="#DejaVuSans-32" x="198.046875"/>
       <use xlink:href="#DejaVuSans-20" x="261.669922"/>
       <use xlink:href="#DejaVuSans-47" x="293.457031"/>
       <use xlink:href="#DejaVuSans-42" x="370.947266"/>
       <use xlink:href="#DejaVuSans-29" x="439.550781"/>
      </g>
     </g>
    </g>
    <g id="xtick_7">
     <g id="line2d_7">
      <g>
       <use xlink:href="#m8bbd7a9690" x="397.013636" y="230.6" style="stroke: #000000; stroke-width: 0.8"/>
      </g>
     </g>
     <g id="text_7">
      <!-- NorthCarolina.geojson -->
      <g transform="translate(394.174105 348.948438) rotate(-90) scale(0.1 -0.1)">
       <defs>
        <path id="DejaVuSans-4e" d="M 628 4666 
L 1478 4666 
L 3547 763 
L 3547 4666 
L 4159 4666 
L 4159 0 
L 3309 0 
L 1241 3903 
L 1241 0 
L 628 0 
L 628 4666 
z
" transform="scale(0.015625)"/>
        <path id="DejaVuSans-43" d="M 4122 4306 
L 4122 3641 
Q 3803 3938 3442 4084 
Q 3081 4231 2675 4231 
Q 1875 4231 1450 3742 
Q 1025 3253 1025 2328 
Q 1025 1406 1450 917 
Q 1875 428 2675 428 
Q 3081 428 3442 575 
Q 3803 722 4122 1019 
L 4122 359 
Q 3791 134 3420 21 
Q 3050 -91 2638 -91 
Q 1578 -91 968 557 
Q 359 1206 359 2328 
Q 359 3453 968 4101 
Q 1578 4750 2638 4750 
Q 3056 4750 3426 4639 
Q 3797 4528 4122 4306 
z
" transform="scale(0.015625)"/>
       </defs>
       <use xlink:href="#DejaVuSans-4e"/>
       <use xlink:href="#DejaVuSans-6f" x="74.804688"/>
       <use xlink:href="#DejaVuSans-72" x="135.986328"/>
       <use xlink:href="#DejaVuSans-74" x="177.099609"/>
       <use xlink:href="#DejaVuSans-68" x="216.308594"/>
       <use xlink:href="#DejaVuSans-43" x="279.6875"/>
       <use xlink:href="#DejaVuSans-61" x="349.511719"/>
       <use xlink:href="#DejaVuSans-72" x="410.791016"/>
       <use xlink:href="#DejaVuSans-6f" x="449.654297"/>
       <use xlink:href="#DejaVuSans-6c" x="510.835938"/>
       <use xlink:href="#DejaVuSans-69" x="538.619141"/>
       <use xlink:href="#DejaVuSans-6e" x="566.402344"/>
       <use xlink:href="#DejaVuSans-61" x="629.78125"/>
       <use xlink:href="#DejaVuSans-2e" x="691.060547"/>
       <use xlink:href="#DejaVuSans-67" x="722.847656"/>
       <use xlink:href="#DejaVuSans-65" x="786.324219"/>
       <use xlink:href="#DejaVuSans-6f" x="847.847656"/>
       <use xlink:href="#DejaVuSans-6a" x="909.029297"/>
       <use xlink:href="#DejaVuSans-73" x="936.8125"/>
       <use xlink:href="#DejaVuSans-6f" x="988.912109"/>
       <use xlink:href="#DejaVuSans-6e" x="1050.09375"/>
      </g>
      <!-- (1.31 GB) -->
      <g transform="translate(405.371918 317.202344) rotate(-90) scale(0.1 -0.1)">
       <use xlink:href="#DejaVuSans-28"/>
       <use xlink:href="#DejaVuSans-31" x="39.013672"/>
       <use xlink:href="#DejaVuSans-2e" x="102.636719"/>
       <use xlink:href="#DejaVuSans-33" x="134.423828"/>
       <use xlink:href="#DejaVuSans-31" x="198.046875"/>
       <use xlink:href="#DejaVuSans-20" x="261.669922"/>
       <use xlink:href="#DejaVuSans-47" x="293.457031"/>
       <use xlink:href="#DejaVuSans-42" x="370.947266"/>
       <use xlink:href="#DejaVuSans-29" x="439.550781"/>
      </g>
     </g>
    </g>
    <g id="xtick_8">
     <g id="line2d_8">
      <g>
       <use xlink:href="#m8bbd7a9690" x="449.070455" y="230.6" style="stroke: #000000; stroke-width: 0.8"/>
      </g>
     </g>
     <g id="text_8">
      <!-- Florida.geojson -->
      <g transform="translate(446.230923 313.85625) rotate(-90) scale(0.1 -0.1)">
       <defs>
        <path id="DejaVuSans-46" d="M 628 4666 
L 3309 4666 
L 3309 4134 
L 1259 4134 
L 1259 2759 
L 3109 2759 
L 3109 2228 
L 1259 2228 
L 1259 0 
L 628 0 
L 628 4666 
z
" transform="scale(0.015625)"/>
       </defs>
       <use xlink:href="#DejaVuSans-46"/>
       <use xlink:href="#DejaVuSans-6c" x="57.519531"/>
       <use xlink:href="#DejaVuSans-6f" x="85.302734"/>
       <use xlink:href="#DejaVuSans-72" x="146.484375"/>
       <use xlink:href="#DejaVuSans-69" x="187.597656"/>
       <use xlink:href="#DejaVuSans-64" x="215.380859"/>
       <use xlink:href="#DejaVuSans-61" x="278.857422"/>
       <use xlink:href="#DejaVuSans-2e" x="340.136719"/>
       <use xlink:href="#DejaVuSans-67" x="371.923828"/>
       <use xlink:href="#DejaVuSans-65" x="435.400391"/>
       <use xlink:href="#DejaVuSans-6f" x="496.923828"/>
       <use xlink:href="#DejaVuSans-6a" x="558.105469"/>
       <use xlink:href="#DejaVuSans-73" x="585.888672"/>
       <use xlink:href="#DejaVuSans-6f" x="637.988281"/>
       <use xlink:href="#DejaVuSans-6e" x="699.169922"/>
      </g>
      <!-- (2.16 GB) -->
      <g transform="translate(457.428736 299.65625) rotate(-90) scale(0.1 -0.1)">
       <use xlink:href="#DejaVuSans-28"/>
       <use xlink:href="#DejaVuSans-32" x="39.013672"/>
       <use xlink:href="#DejaVuSans-2e" x="102.636719"/>
       <use xlink:href="#DejaVuSans-31" x="134.423828"/>
       <use xlink:href="#DejaVuSans-36" x="198.046875"/>
       <use xlink:href="#DejaVuSans-20" x="261.669922"/>
       <use xlink:href="#DejaVuSans-47" x="293.457031"/>
       <use xlink:href="#DejaVuSans-42" x="370.947266"/>
       <use xlink:href="#DejaVuSans-29" x="439.550781"/>
      </g>
     </g>
    </g>
    <g id="xtick_9">
     <g id="line2d_9">
      <g>
       <use xlink:href="#m8bbd7a9690" x="501.127273" y="230.6" style="stroke: #000000; stroke-width: 0.8"/>
      </g>
     </g>
     <g id="text_9">
      <!-- California.geojson -->
      <g transform="translate(498.287741 327.328125) rotate(-90) scale(0.1 -0.1)">
       <defs>
        <path id="DejaVuSans-66" d="M 2375 4863 
L 2375 4384 
L 1825 4384 
Q 1516 4384 1395 4259 
Q 1275 4134 1275 3809 
L 1275 3500 
L 2222 3500 
L 2222 3053 
L 1275 3053 
L 1275 0 
L 697 0 
L 697 3053 
L 147 3053 
L 147 3500 
L 697 3500 
L 697 3744 
Q 697 4328 969 4595 
Q 1241 4863 1831 4863 
L 2375 4863 
z
" transform="scale(0.015625)"/>
       </defs>
       <use xlink:href="#DejaVuSans-43"/>
       <use xlink:href="#DejaVuSans-61" x="69.824219"/>
       <use xlink:href="#DejaVuSans-6c" x="131.103516"/>
       <use xlink:href="#DejaVuSans-69" x="158.886719"/>
       <use xlink:href="#DejaVuSans-66" x="186.669922"/>
       <use xlink:href="#DejaVuSans-6f" x="221.875"/>
       <use xlink:href="#DejaVuSans-72" x="283.056641"/>
       <use xlink:href="#DejaVuSans-6e" x="322.419922"/>
       <use xlink:href="#DejaVuSans-69" x="385.798828"/>
       <use xlink:href="#DejaVuSans-61" x="413.582031"/>
       <use xlink:href="#DejaVuSans-2e" x="474.861328"/>
       <use xlink:href="#DejaVuSans-67" x="506.648438"/>
       <use xlink:href="#DejaVuSans-65" x="570.125"/>
       <use xlink:href="#DejaVuSans-6f" x="631.648438"/>
       <use xlink:href="#DejaVuSans-6a" x="692.830078"/>
       <use xlink:href="#DejaVuSans-73" x="720.613281"/>
       <use xlink:href="#DejaVuSans-6f" x="772.712891"/>
       <use xlink:href="#DejaVuSans-6e" x="833.894531"/>
      </g>
      <!-- (3.60 GB) -->
      <g transform="translate(509.485554 306.392187) rotate(-90) scale(0.1 -0.1)">
       <use xlink:href="#DejaVuSans-28"/>
       <use xlink:href="#DejaVuSans-33" x="39.013672"/>
       <use xlink:href="#DejaVuSans-2e" x="102.636719"/>
       <use xlink:href="#DejaVuSans-36" x="134.423828"/>
       <use xlink:href="#DejaVuSans-30" x="198.046875"/>
       <use xlink:href="#DejaVuSans-20" x="261.669922"/>
       <use xlink:href="#DejaVuSans-47" x="293.457031"/>
       <use xlink:href="#DejaVuSans-42" x="370.947266"/>
       <use xlink:href="#DejaVuSans-29" x="439.550781"/>
      </g>
     </g>
    </g>
   </g>
   <g id="matplotlib.axis_2">
    <g id="ytick_1">
     <g id="line2d_10">
      <defs>
       <path id="mb9ba73176b" d="M 0 0 
L -3.5 0 
" style="stroke: #000000; stroke-width: 0.8"/>
      </defs>
      <g>
       <use xlink:href="#mb9ba73176b" x="63.85" y="221.158064" style="stroke: #000000; stroke-width: 0.8"/>
      </g>
     </g>
     <g id="text_10">
      <!-- 0 s -->
      <g transform="translate(42.1 224.957283) scale(0.1 -0.1)">
       <use xlink:href="#DejaVuSans-30"/>
       <use xlink:href="#DejaVuSans-20" x="63.623047"/>
       <use xlink:href="#DejaVuSans-73" x="95.410156"/>
      </g>
     </g>
    </g>
    <g id="ytick_2">
     <g id="line2d_11">
      <g>
       <use xlink:href="#mb9ba73176b" x="63.85" y="196.607245" style="stroke: #000000; stroke-width: 0.8"/>
      </g>
     </g>
     <g id="text_11">
      <!-- 5 s -->
      <g transform="translate(42.1 200.406464) scale(0.1 -0.1)">
       <use xlink:href="#DejaVuSans-35"/>
       <use xlink:href="#DejaVuSans-20" x="63.623047"/>
       <use xlink:href="#DejaVuSans-73" x="95.410156"/>
      </g>
     </g>
    </g>
    <g id="ytick_3">
     <g id="line2d_12">
      <g>
       <use xlink:href="#mb9ba73176b" x="63.85" y="172.056426" style="stroke: #000000; stroke-width: 0.8"/>
      </g>
     </g>
     <g id="text_12">
      <!-- 10 s -->
      <g transform="translate(35.7375 175.855645) scale(0.1 -0.1)">
       <use xlink:href="#DejaVuSans-31"/>
       <use xlink:href="#DejaVuSans-30" x="63.623047"/>
       <use xlink:href="#DejaVuSans-20" x="127.246094"/>
       <use xlink:href="#DejaVuSans-73" x="159.033203"/>
      </g>
     </g>
    </g>
    <g id="ytick_4">
     <g id="line2d_13">
      <g>
       <use xlink:href="#mb9ba73176b" x="63.85" y="147.505607" style="stroke: #000000; stroke-width: 0.8"/>
      </g>
     </g>
     <g id="text_13">
      <!-- 15 s -->
      <g transform="translate(35.7375 151.304825) scale(0.1 -0.1)">
       <use xlink:href="#DejaVuSans-31"/>
       <use xlink:href="#DejaVuSans-35" x="63.623047"/>
       <use xlink:href="#DejaVuSans-20" x="127.246094"/>
       <use xlink:href="#DejaVuSans-73" x="159.033203"/>
      </g>
     </g>
    </g>
    <g id="ytick_5">
     <g id="line2d_14">
      <g>
       <use xlink:href="#mb9ba73176b" x="63.85" y="122.954788" style="stroke: #000000; stroke-width: 0.8"/>
      </g>
     </g>
     <g id="text_14">
      <!-- 20 s -->
      <g transform="translate(35.7375 126.754006) scale(0.1 -0.1)">
       <use xlink:href="#DejaVuSans-32"/>
       <use xlink:href="#DejaVuSans-30" x="63.623047"/>
       <use xlink:href="#DejaVuSans-20" x="127.246094"/>
       <use xlink:href="#DejaVuSans-73" x="159.033203"/>
      </g>
     </g>
    </g>
    <g id="ytick_6">
     <g id="line2d_15">
      <g>
       <use xlink:href="#mb9ba73176b" x="63.85" y="98.403968" style="stroke: #000000; stroke-width: 0.8"/>
      </g>
     </g>
     <g id="text_15">
      <!-- 25 s -->
      <g transform="translate(35.7375 102.203187) scale(0.1 -0.1)">
       <use xlink:href="#DejaVuSans-32"/>
       <use xlink:href="#DejaVuSans-35" x="63.623047"/>
       <use xlink:href="#DejaVuSans-20" x="127.246094"/>
       <use xlink:href="#DejaVuSans-73" x="159.033203"/>
      </g>
     </g>
    </g>
    <g id="ytick_7">
     <g id="line2d_16">
      <g>
       <use xlink:href="#mb9ba73176b" x="63.85" y="73.853149" style="stroke: #000000; stroke-width: 0.8"/>
      </g>
     </g>
     <g id="text_16">
      <!-- 30 s -->
      <g transform="translate(35.7375 77.652368) scale(0.1 -0.1)">
       <use xlink:href="#DejaVuSans-33"/>
       <use xlink:href="#DejaVuSans-30" x="63.623047"/>
       <use xlink:href="#DejaVuSans-20" x="127.246094"/>
       <use xlink:href="#DejaVuSans-73" x="159.033203"/>
      </g>
     </g>
    </g>
    <g id="ytick_8">
     <g id="line2d_17">
      <g>
       <use xlink:href="#mb9ba73176b" x="63.85" y="49.30233" style="stroke: #000000; stroke-width: 0.8"/>
      </g>
     </g>
     <g id="text_17">
      <!-- 35 s -->
      <g transform="translate(35.7375 53.101549) scale(0.1 -0.1)">
       <use xlink:href="#DejaVuSans-33"/>
       <use xlink:href="#DejaVuSans-35" x="63.623047"/>
       <use xlink:href="#DejaVuSans-20" x="127.246094"/>
       <use xlink:href="#DejaVuSans-73" x="159.033203"/>
      </g>
     </g>
    </g>
    <g id="ytick_9">
     <g id="line2d_18">
      <g>
       <use xlink:href="#mb9ba73176b" x="63.85" y="24.751511" style="stroke: #000000; stroke-width: 0.8"/>
      </g>
     </g>
     <g id="text_18">
      <!-- 40 s -->
      <g transform="translate(35.7375 28.55073) scale(0.1 -0.1)">
       <use xlink:href="#DejaVuSans-34"/>
       <use xlink:href="#DejaVuSans-30" x="63.623047"/>
       <use xlink:href="#DejaVuSans-20" x="127.246094"/>
       <use xlink:href="#DejaVuSans-73" x="159.033203"/>
      </g>
     </g>
    </g>
    <g id="text_19">
     <!-- Runtime -->
     <g transform="translate(18.657812 141.582812) rotate(-90) scale(0.1 -0.1)">
      <defs>
       <path id="DejaVuSans-52" d="M 2841 2188 
Q 3044 2119 3236 1894 
Q 3428 1669 3622 1275 
L 4263 0 
L 3584 0 
L 2988 1197 
Q 2756 1666 2539 1819 
Q 2322 1972 1947 1972 
L 1259 1972 
L 1259 0 
L 628 0 
L 628 4666 
L 2053 4666 
Q 2853 4666 3247 4331 
Q 3641 3997 3641 3322 
Q 3641 2881 3436 2590 
Q 3231 2300 2841 2188 
z
M 1259 4147 
L 1259 2491 
L 2053 2491 
Q 2509 2491 2742 2702 
Q 2975 2913 2975 3322 
Q 2975 3731 2742 3939 
Q 2509 4147 2053 4147 
L 1259 4147 
z
" transform="scale(0.015625)"/>
       <path id="DejaVuSans-75" d="M 544 1381 
L 544 3500 
L 1119 3500 
L 1119 1403 
Q 1119 906 1312 657 
Q 1506 409 1894 409 
Q 2359 409 2629 706 
Q 2900 1003 2900 1516 
L 2900 3500 
L 3475 3500 
L 3475 0 
L 2900 0 
L 2900 538 
Q 2691 219 2414 64 
Q 2138 -91 1772 -91 
Q 1169 -91 856 284 
Q 544 659 544 1381 
z
M 1991 3584 
L 1991 3584 
z
" transform="scale(0.015625)"/>
      </defs>
      <use xlink:href="#DejaVuSans-52"/>
      <use xlink:href="#DejaVuSans-75" x="64.982422"/>
      <use xlink:href="#DejaVuSans-6e" x="128.361328"/>
      <use xlink:href="#DejaVuSans-74" x="191.740234"/>
      <use xlink:href="#DejaVuSans-69" x="230.949219"/>
      <use xlink:href="#DejaVuSans-6d" x="258.732422"/>
      <use xlink:href="#DejaVuSans-65" x="356.144531"/>
     </g>
    </g>
   </g>
   <g id="line2d_19">
    <path d="M 84.672727 220.111241 
L 136.729545 218.026821 
L 188.786364 212.706379 
L 240.843182 203.20668 
L 292.9 193.188663 
L 344.956818 168.378041 
L 397.013636 162.18236 
L 449.070455 118.185155 
L 501.127273 20.790909 
" clip-path="url(#pcada8008ec)" style="fill: none; stroke: #1f77b4; stroke-width: 1.5; stroke-linecap: square"/>
   </g>
   <g id="line2d_20">
    <path d="M 84.672727 220.422509 
L 136.729545 218.982277 
L 188.786364 214.889527 
L 240.843182 208.045206 
L 292.9 202.174503 
L 344.956818 194.066401 
L 397.013636 189.935386 
L 449.070455 164.039613 
L 501.127273 116.476478 
" clip-path="url(#pcada8008ec)" style="fill: none; stroke: #ff7f0e; stroke-width: 1.5; stroke-linecap: square"/>
   </g>
   <g id="line2d_21">
    <path d="M 84.672727 220.470625 
L 136.729545 219.188882 
L 188.786364 215.411705 
L 240.843182 209.186274 
L 292.9 203.992052 
L 344.956818 197.521941 
L 397.013636 193.44864 
L 449.070455 175.403217 
L 501.127273 144.623766 
" clip-path="url(#pcada8008ec)" style="fill: none; stroke: #2ca02c; stroke-width: 1.5; stroke-linecap: square"/>
   </g>
   <g id="line2d_22">
    <path d="M 84.672727 220.565943 
L 136.729545 219.427974 
L 188.786364 216.082805 
L 240.843182 210.55362 
L 292.9 206.31846 
L 344.956818 200.294777 
L 397.013636 196.721744 
L 449.070455 180.849582 
L 501.127273 154.649527 
" clip-path="url(#pcada8008ec)" style="fill: none; stroke: #d62728; stroke-width: 1.5; stroke-linecap: square"/>
   </g>
   <g id="line2d_23">
    <path d="M 84.672727 220.609091 
L 136.729545 219.569704 
L 188.786364 216.449593 
L 240.843182 211.258177 
L 292.9 207.427927 
L 344.956818 201.979112 
L 397.013636 198.694862 
L 449.070455 184.224518 
L 501.127273 159.47738 
" clip-path="url(#pcada8008ec)" style="fill: none; stroke: #9467bd; stroke-width: 1.5; stroke-linecap: square"/>
   </g>
   <g id="patch_3">
    <path d="M 63.85 230.6 
L 63.85 10.8 
" style="fill: none; stroke: #000000; stroke-width: 0.8; stroke-linejoin: miter; stroke-linecap: square"/>
   </g>
   <g id="patch_4">
    <path d="M 521.95 230.6 
L 521.95 10.8 
" style="fill: none; stroke: #000000; stroke-width: 0.8; stroke-linejoin: miter; stroke-linecap: square"/>
   </g>
   <g id="patch_5">
    <path d="M 63.85 230.6 
L 521.95 230.6 
" style="fill: none; stroke: #000000; stroke-width: 0.8; stroke-linejoin: miter; stroke-linecap: square"/>
   </g>
   <g id="patch_6">
    <path d="M 63.85 10.8 
L 521.95 10.8 
" style="fill: none; stroke: #000000; stroke-width: 0.8; stroke-linejoin: miter; stroke-linecap: square"/>
   </g>
   <g id="legend_1">
    <g id="patch_7">
     <path d="M 547.274 92.190625 
L 703.228687 92.190625 
Q 705.228687 92.190625 705.228687 90.190625 
L 705.228687 17.8 
Q 705.228687 15.8 703.228687 15.8 
L 547.274 15.8 
Q 545.274 15.8 545.274 17.8 
L 545.274 90.190625 
Q 545.274 92.190625 547.274 92.190625 
z
" style="fill: #ffffff; opacity: 0.8; stroke: #cccccc; stroke-linejoin: miter"/>
    </g>
    <g id="line2d_24">
     <path d="M 549.274 23.898438 
L 559.274 23.898438 
L 569.274 23.898438 
" style="fill: none; stroke: #1f77b4; stroke-width: 1.5; stroke-linecap: square"/>
    </g>
    <g id="text_20">
     <!-- serde-json -->
     <g transform="translate(577.274 27.398438) scale(0.1 -0.1)">
      <defs>
       <path id="DejaVuSans-2d" d="M 313 2009 
L 1997 2009 
L 1997 1497 
L 313 1497 
L 313 2009 
z
" transform="scale(0.015625)"/>
      </defs>
      <use xlink:href="#DejaVuSans-73"/>
      <use xlink:href="#DejaVuSans-65" x="52.099609"/>
      <use xlink:href="#DejaVuSans-72" x="113.623047"/>
      <use xlink:href="#DejaVuSans-64" x="152.986328"/>
      <use xlink:href="#DejaVuSans-65" x="216.462891"/>
      <use xlink:href="#DejaVuSans-2d" x="277.986328"/>
      <use xlink:href="#DejaVuSans-6a" x="314.070312"/>
      <use xlink:href="#DejaVuSans-73" x="341.853516"/>
      <use xlink:href="#DejaVuSans-6f" x="393.953125"/>
      <use xlink:href="#DejaVuSans-6e" x="455.134766"/>
     </g>
    </g>
    <g id="line2d_25">
     <path d="M 549.274 38.576563 
L 559.274 38.576563 
L 569.274 38.576563 
" style="fill: none; stroke: #ff7f0e; stroke-width: 1.5; stroke-linecap: square"/>
    </g>
    <g id="text_21">
     <!-- serde-json-struct -->
     <g transform="translate(577.274 42.076563) scale(0.1 -0.1)">
      <defs>
       <path id="DejaVuSans-63" d="M 3122 3366 
L 3122 2828 
Q 2878 2963 2633 3030 
Q 2388 3097 2138 3097 
Q 1578 3097 1268 2742 
Q 959 2388 959 1747 
Q 959 1106 1268 751 
Q 1578 397 2138 397 
Q 2388 397 2633 464 
Q 2878 531 3122 666 
L 3122 134 
Q 2881 22 2623 -34 
Q 2366 -91 2075 -91 
Q 1284 -91 818 406 
Q 353 903 353 1747 
Q 353 2603 823 3093 
Q 1294 3584 2113 3584 
Q 2378 3584 2631 3529 
Q 2884 3475 3122 3366 
z
" transform="scale(0.015625)"/>
      </defs>
      <use xlink:href="#DejaVuSans-73"/>
      <use xlink:href="#DejaVuSans-65" x="52.099609"/>
      <use xlink:href="#DejaVuSans-72" x="113.623047"/>
      <use xlink:href="#DejaVuSans-64" x="152.986328"/>
      <use xlink:href="#DejaVuSans-65" x="216.462891"/>
      <use xlink:href="#DejaVuSans-2d" x="277.986328"/>
      <use xlink:href="#DejaVuSans-6a" x="314.070312"/>
      <use xlink:href="#DejaVuSans-73" x="341.853516"/>
      <use xlink:href="#DejaVuSans-6f" x="393.953125"/>
      <use xlink:href="#DejaVuSans-6e" x="455.134766"/>
      <use xlink:href="#DejaVuSans-2d" x="518.513672"/>
      <use xlink:href="#DejaVuSans-73" x="554.597656"/>
      <use xlink:href="#DejaVuSans-74" x="606.697266"/>
      <use xlink:href="#DejaVuSans-72" x="645.90625"/>
      <use xlink:href="#DejaVuSans-75" x="687.019531"/>
      <use xlink:href="#DejaVuSans-63" x="750.398438"/>
      <use xlink:href="#DejaVuSans-74" x="805.378906"/>
     </g>
    </g>
    <g id="line2d_26">
     <path d="M 549.274 53.254687 
L 559.274 53.254687 
L 569.274 53.254687 
" style="fill: none; stroke: #2ca02c; stroke-width: 1.5; stroke-linecap: square"/>
    </g>
    <g id="text_22">
     <!-- Actson (Tokio) -->
     <g transform="translate(577.274 56.754687) scale(0.1 -0.1)">
      <defs>
       <path id="DejaVuSans-54" d="M -19 4666 
L 3928 4666 
L 3928 4134 
L 2272 4134 
L 2272 0 
L 1638 0 
L 1638 4134 
L -19 4134 
L -19 4666 
z
" transform="scale(0.015625)"/>
      </defs>
      <use xlink:href="#DejaVuSans-41"/>
      <use xlink:href="#DejaVuSans-63" x="66.658203"/>
      <use xlink:href="#DejaVuSans-74" x="121.638672"/>
      <use xlink:href="#DejaVuSans-73" x="160.847656"/>
      <use xlink:href="#DejaVuSans-6f" x="212.947266"/>
      <use xlink:href="#DejaVuSans-6e" x="274.128906"/>
      <use xlink:href="#DejaVuSans-20" x="337.507812"/>
      <use xlink:href="#DejaVuSans-28" x="369.294922"/>
      <use xlink:href="#DejaVuSans-54" x="408.308594"/>
      <use xlink:href="#DejaVuSans-6f" x="452.392578"/>
      <use xlink:href="#DejaVuSans-6b" x="513.574219"/>
      <use xlink:href="#DejaVuSans-69" x="571.484375"/>
      <use xlink:href="#DejaVuSans-6f" x="599.267578"/>
      <use xlink:href="#DejaVuSans-29" x="660.449219"/>
     </g>
    </g>
    <g id="line2d_27">
     <path d="M 549.274 67.932813 
L 559.274 67.932813 
L 569.274 67.932813 
" style="fill: none; stroke: #d62728; stroke-width: 1.5; stroke-linecap: square"/>
    </g>
    <g id="text_23">
     <!-- Actson (Tokio, two tasks) -->
     <g transform="translate(577.274 71.432813) scale(0.1 -0.1)">
      <defs>
       <path id="DejaVuSans-2c" d="M 750 794 
L 1409 794 
L 1409 256 
L 897 -744 
L 494 -744 
L 750 256 
L 750 794 
z
" transform="scale(0.015625)"/>
       <path id="DejaVuSans-77" d="M 269 3500 
L 844 3500 
L 1563 769 
L 2278 3500 
L 2956 3500 
L 3675 769 
L 4391 3500 
L 4966 3500 
L 4050 0 
L 3372 0 
L 2619 2869 
L 1863 0 
L 1184 0 
L 269 3500 
z
" transform="scale(0.015625)"/>
      </defs>
      <use xlink:href="#DejaVuSans-41"/>
      <use xlink:href="#DejaVuSans-63" x="66.658203"/>
      <use xlink:href="#DejaVuSans-74" x="121.638672"/>
      <use xlink:href="#DejaVuSans-73" x="160.847656"/>
      <use xlink:href="#DejaVuSans-6f" x="212.947266"/>
      <use xlink:href="#DejaVuSans-6e" x="274.128906"/>
      <use xlink:href="#DejaVuSans-20" x="337.507812"/>
      <use xlink:href="#DejaVuSans-28" x="369.294922"/>
      <use xlink:href="#DejaVuSans-54" x="408.308594"/>
      <use xlink:href="#DejaVuSans-6f" x="452.392578"/>
      <use xlink:href="#DejaVuSans-6b" x="513.574219"/>
      <use xlink:href="#DejaVuSans-69" x="571.484375"/>
      <use xlink:href="#DejaVuSans-6f" x="599.267578"/>
      <use xlink:href="#DejaVuSans-2c" x="660.449219"/>
      <use xlink:href="#DejaVuSans-20" x="692.236328"/>
      <use xlink:href="#DejaVuSans-74" x="724.023438"/>
      <use xlink:href="#DejaVuSans-77" x="763.232422"/>
      <use xlink:href="#DejaVuSans-6f" x="845.019531"/>
      <use xlink:href="#DejaVuSans-20" x="906.201172"/>
      <use xlink:href="#DejaVuSans-74" x="937.988281"/>
      <use xlink:href="#DejaVuSans-61" x="977.197266"/>
      <use xlink:href="#DejaVuSans-73" x="1038.476562"/>
      <use xlink:href="#DejaVuSans-6b" x="1090.576172"/>
      <use xlink:href="#DejaVuSans-73" x="1148.486328"/>
      <use xlink:href="#DejaVuSans-29" x="1200.585938"/>
     </g>
    </g>
    <g id="line2d_28">
     <path d="M 549.274 82.610937 
L 559.274 82.610937 
L 569.274 82.610937 
" style="fill: none; stroke: #9467bd; stroke-width: 1.5; stroke-linecap: square"/>
    </g>
    <g id="text_24">
     <!-- Actson (BufReader) -->
     <g transform="translate(577.274 86.110937) scale(0.1 -0.1)">
      <use xlink:href="#DejaVuSans-41"/>
      <use xlink:href="#DejaVuSans-63" x="66.658203"/>
      <use xlink:href="#DejaVuSans-74" x="121.638672"/>
      <use xlink:href="#DejaVuSans-73" x="160.847656"/>
      <use xlink:href="#DejaVuSans-6f" x="212.947266"/>
      <use xlink:href="#DejaVuSans-6e" x="274.128906"/>
      <use xlink:href="#DejaVuSans-20" x="337.507812"/>
      <use xlink:href="#DejaVuSans-28" x="369.294922"/>
      <use xlink:href="#DejaVuSans-42" x="408.308594"/>
      <use xlink:href="#DejaVuSans-75" x="476.912109"/>
      <use xlink:href="#DejaVuSans-66" x="540.291016"/>
      <use xlink:href="#DejaVuSans-52" x="575.496094"/>
      <use xlink:href="#DejaVuSans-65" x="640.478516"/>
      <use xlink:href="#DejaVuSans-61" x="702.001953"/>
      <use xlink:href="#DejaVuSans-64" x="763.28125"/>
      <use xlink:href="#DejaVuSans-65" x="826.757812"/>
      <use xlink:href="#DejaVuSans-72" x="888.28125"/>
      <use xlink:href="#DejaVuSans-29" x="929.394531"/>
     </g>
    </g>
   </g>
  </g>
 </g>
 <defs>
  <clipPath id="pcada8008ec">
   <rect x="63.85" y="10.8" width="458.1" height="219.8"/>
  </clipPath>
 </defs>
</svg>
